<svg version="1.2" xmlns="http://www.w3.org/2000/svg" viewBox="0 0 1648 757" width="1648" height="757">
	<style>
		.s0 { opacity: .05;fill: #0cf57e } 
	</style>
	<g id="Layer_1-2">
		<path id="Shape 2" fill-rule="evenodd" class="s0" d="m260.46 317.76l-84.73 48.91-84.73-48.91v-97.84l84.73-48.92 84.73 48.92z"/>
		<path id="Shape 2 copy" fill-rule="evenodd" class="s0" d="m308.04 392.72l-84.73 48.92-84.73-48.92v-97.84l84.73-48.92 84.73 48.92z"/>
		<path id="Shape 2 copy 11" fill-rule="evenodd" class="s0" d="m1318.49 303.74l-94.75 54.7-94.74-54.7v-109.4l94.74-54.7 94.75 54.7z"/>
		<path id="Shape 2 copy 12" fill-rule="evenodd" class="s0" d="m1415.77 203.1l-94.74 54.7-94.75-54.7v-109.4l94.75-54.7 94.74 54.7z"/>
		<path id="Shape 2 copy 9" fill-rule="evenodd" class="s0" d="m1007.1 430.14l-59.55 34.38-59.55-34.38v-68.76l59.55-34.38 59.55 34.38z"/>
		<path id="Shape 2 copy 10" fill-rule="evenodd" class="s0" d="m1603.41 535.67l-224.11 129.39-224.11-129.39v-258.78l224.11-129.39 224.11 129.39z"/>
		<path id="Shape 2 copy 6" fill-rule="evenodd" class="s0" d="m1118.79 679.5l-38.4 22.17-38.39-22.17v-44.33l38.39-22.17 38.4 22.17z"/>
		<path id="Shape 2 copy 8" fill-rule="evenodd" class="s0" d="m1155.79 722.5l-38.4 22.17-38.39-22.17v-44.33l38.39-22.17 38.4 22.17z"/>
		<path id="Shape 2 copy 7" fill-rule="evenodd" class="s0" d="m1082.35 722.47l-38.4 22.17-38.39-22.17v-44.33l38.39-22.17 38.4 22.17z"/>
		<path id="Shape 2 copy 4" fill-rule="evenodd" class="s0" d="m945.04 643.72l-84.73 48.92-84.73-48.92v-97.84l84.73-48.92 84.73 48.92z"/>
		<path id="Shape 2 copy 5" fill-rule="evenodd" class="s0" d="m896.04 722.72l-84.73 48.92-84.73-48.92v-97.84l84.73-48.92 84.73 48.92z"/>
		<path id="Shape 2 copy 2" fill-rule="evenodd" class="s0" d="m192.13 665.1l-56.07 32.37-56.06-32.37v-64.73l56.06-32.37 56.07 32.37z"/>
		<path id="Shape 2 copy 3" fill-rule="evenodd" class="s0" d="m157.56 718.71l-56.06 32.37-56.06-32.37v-64.73l56.06-32.37 56.06 32.37z"/>
	</g>
</svg>